<svg id="visual" viewBox="0 0 1920 1080" width="1920" height="1080" xmlns="http://www.w3.org/2000/svg" xmlns:xlink="http://www.w3.org/1999/xlink" version="1.1"><path d="M0 722L45.7 731.3C91.3 740.7 182.7 759.3 274.2 780.8C365.7 802.3 457.3 826.7 548.8 828.2C640.3 829.7 731.7 808.3 823 791C914.3 773.7 1005.7 760.3 1097 770.5C1188.3 780.7 1279.7 814.3 1371.2 845.3C1462.7 876.3 1554.3 904.7 1645.8 910.7C1737.3 916.7 1828.7 900.3 1874.3 892.2L1920 884L1920 1081L1874.3 1081C1828.7 1081 1737.3 1081 1645.8 1081C1554.3 1081 1462.7 1081 1371.2 1081C1279.7 1081 1188.3 1081 1097 1081C1005.7 1081 914.3 1081 823 1081C731.7 1081 640.3 1081 548.8 1081C457.3 1081 365.7 1081 274.2 1081C182.7 1081 91.3 1081 45.7 1081L0 1081Z" fill="#DA291C" stroke-linecap="round" stroke-linejoin="miter"></path></svg>